<mxfile host="app.diagrams.net" agent="Mozilla/5.0 (Windows NT 10.0; Win64; x64) AppleWebKit/537.36 (KHTML, like Gecko) Chrome/131.0.0.0 Safari/537.36" version="25.0.3">
  <diagram id="eD19Ripziv58Wc3n_SN-" name="Trang-1">
    <mxGraphModel dx="880" dy="468" grid="1" gridSize="10" guides="1" tooltips="1" connect="1" arrows="1" fold="1" page="1" pageScale="1" pageWidth="827" pageHeight="1169" math="0" shadow="0">
      <root>
        <mxCell id="0" />
        <mxCell id="1" parent="0" />
        <mxCell id="efFWzHgV2TAKS4km1B-Z-10" style="edgeStyle=orthogonalEdgeStyle;rounded=0;orthogonalLoop=1;jettySize=auto;html=1;exitX=0.5;exitY=1;exitDx=0;exitDy=0;" edge="1" parent="1" source="eqOLN0rUVSn0SrnB4fHh-1" target="eqOLN0rUVSn0SrnB4fHh-3">
          <mxGeometry relative="1" as="geometry" />
        </mxCell>
        <mxCell id="eqOLN0rUVSn0SrnB4fHh-1" value="Start" style="ellipse;whiteSpace=wrap;html=1;aspect=fixed;" parent="1" vertex="1">
          <mxGeometry x="350" width="80" height="80" as="geometry" />
        </mxCell>
        <mxCell id="eqOLN0rUVSn0SrnB4fHh-2" value="End" style="ellipse;whiteSpace=wrap;html=1;aspect=fixed;" parent="1" vertex="1">
          <mxGeometry x="350" y="1000" width="80" height="80" as="geometry" />
        </mxCell>
        <mxCell id="efFWzHgV2TAKS4km1B-Z-11" style="edgeStyle=orthogonalEdgeStyle;rounded=0;orthogonalLoop=1;jettySize=auto;html=1;exitX=0.5;exitY=1;exitDx=0;exitDy=0;entryX=0.5;entryY=0;entryDx=0;entryDy=0;" edge="1" parent="1" source="efFWzHgV2TAKS4km1B-Z-19" target="efFWzHgV2TAKS4km1B-Z-1">
          <mxGeometry relative="1" as="geometry" />
        </mxCell>
        <mxCell id="eqOLN0rUVSn0SrnB4fHh-3" value="count = 0, n" style="shape=parallelogram;perimeter=parallelogramPerimeter;whiteSpace=wrap;html=1;fixedSize=1;" parent="1" vertex="1">
          <mxGeometry x="330" y="120" width="120" height="60" as="geometry" />
        </mxCell>
        <mxCell id="efFWzHgV2TAKS4km1B-Z-13" style="edgeStyle=orthogonalEdgeStyle;rounded=0;orthogonalLoop=1;jettySize=auto;html=1;exitX=0.5;exitY=1;exitDx=0;exitDy=0;" edge="1" parent="1" source="efFWzHgV2TAKS4km1B-Z-1" target="efFWzHgV2TAKS4km1B-Z-2">
          <mxGeometry relative="1" as="geometry" />
        </mxCell>
        <mxCell id="efFWzHgV2TAKS4km1B-Z-40" style="edgeStyle=orthogonalEdgeStyle;rounded=0;orthogonalLoop=1;jettySize=auto;html=1;exitX=1;exitY=0.5;exitDx=0;exitDy=0;entryX=1;entryY=0.5;entryDx=0;entryDy=0;" edge="1" parent="1" source="efFWzHgV2TAKS4km1B-Z-1" target="efFWzHgV2TAKS4km1B-Z-4">
          <mxGeometry relative="1" as="geometry" />
        </mxCell>
        <mxCell id="efFWzHgV2TAKS4km1B-Z-1" value="for (i=2, i &amp;lt;=sqrt(n))" style="rhombus;whiteSpace=wrap;html=1;" vertex="1" parent="1">
          <mxGeometry x="340" y="340" width="100" height="90" as="geometry" />
        </mxCell>
        <mxCell id="efFWzHgV2TAKS4km1B-Z-14" style="edgeStyle=orthogonalEdgeStyle;rounded=0;orthogonalLoop=1;jettySize=auto;html=1;exitX=0.5;exitY=1;exitDx=0;exitDy=0;entryX=0.5;entryY=0;entryDx=0;entryDy=0;" edge="1" parent="1" source="efFWzHgV2TAKS4km1B-Z-2" target="efFWzHgV2TAKS4km1B-Z-3">
          <mxGeometry relative="1" as="geometry" />
        </mxCell>
        <mxCell id="efFWzHgV2TAKS4km1B-Z-2" value="if (n % i == 0)" style="rhombus;whiteSpace=wrap;html=1;" vertex="1" parent="1">
          <mxGeometry x="350" y="470" width="80" height="80" as="geometry" />
        </mxCell>
        <mxCell id="efFWzHgV2TAKS4km1B-Z-17" style="edgeStyle=orthogonalEdgeStyle;rounded=0;orthogonalLoop=1;jettySize=auto;html=1;exitX=0.5;exitY=1;exitDx=0;exitDy=0;" edge="1" parent="1" source="efFWzHgV2TAKS4km1B-Z-3" target="efFWzHgV2TAKS4km1B-Z-4">
          <mxGeometry relative="1" as="geometry" />
        </mxCell>
        <mxCell id="efFWzHgV2TAKS4km1B-Z-3" value="count++" style="rounded=0;whiteSpace=wrap;html=1;" vertex="1" parent="1">
          <mxGeometry x="330" y="585" width="120" height="60" as="geometry" />
        </mxCell>
        <mxCell id="efFWzHgV2TAKS4km1B-Z-24" style="edgeStyle=orthogonalEdgeStyle;rounded=0;orthogonalLoop=1;jettySize=auto;html=1;exitX=0.5;exitY=1;exitDx=0;exitDy=0;entryX=0.5;entryY=0;entryDx=0;entryDy=0;" edge="1" parent="1" source="efFWzHgV2TAKS4km1B-Z-4" target="efFWzHgV2TAKS4km1B-Z-23">
          <mxGeometry relative="1" as="geometry" />
        </mxCell>
        <mxCell id="efFWzHgV2TAKS4km1B-Z-4" value="count &amp;gt; 0" style="rhombus;whiteSpace=wrap;html=1;" vertex="1" parent="1">
          <mxGeometry x="350" y="780" width="80" height="80" as="geometry" />
        </mxCell>
        <mxCell id="efFWzHgV2TAKS4km1B-Z-20" value="" style="edgeStyle=orthogonalEdgeStyle;rounded=0;orthogonalLoop=1;jettySize=auto;html=1;exitX=0.5;exitY=1;exitDx=0;exitDy=0;entryX=0.5;entryY=0;entryDx=0;entryDy=0;" edge="1" parent="1" source="eqOLN0rUVSn0SrnB4fHh-3" target="efFWzHgV2TAKS4km1B-Z-19">
          <mxGeometry relative="1" as="geometry">
            <mxPoint x="390" y="180" as="sourcePoint" />
            <mxPoint x="410" y="410" as="targetPoint" />
          </mxGeometry>
        </mxCell>
        <mxCell id="efFWzHgV2TAKS4km1B-Z-39" style="edgeStyle=orthogonalEdgeStyle;rounded=0;orthogonalLoop=1;jettySize=auto;html=1;exitX=1;exitY=0.5;exitDx=0;exitDy=0;entryX=1;entryY=0.5;entryDx=0;entryDy=0;" edge="1" parent="1" source="efFWzHgV2TAKS4km1B-Z-19" target="eqOLN0rUVSn0SrnB4fHh-2">
          <mxGeometry relative="1" as="geometry">
            <mxPoint x="500" y="1020" as="targetPoint" />
          </mxGeometry>
        </mxCell>
        <mxCell id="efFWzHgV2TAKS4km1B-Z-19" value="n &amp;lt; 2" style="rhombus;whiteSpace=wrap;html=1;" vertex="1" parent="1">
          <mxGeometry x="350" y="220" width="80" height="80" as="geometry" />
        </mxCell>
        <mxCell id="efFWzHgV2TAKS4km1B-Z-25" style="edgeStyle=orthogonalEdgeStyle;rounded=0;orthogonalLoop=1;jettySize=auto;html=1;exitX=0.5;exitY=1;exitDx=0;exitDy=0;entryX=0.5;entryY=0;entryDx=0;entryDy=0;" edge="1" parent="1" source="efFWzHgV2TAKS4km1B-Z-23" target="eqOLN0rUVSn0SrnB4fHh-2">
          <mxGeometry relative="1" as="geometry" />
        </mxCell>
        <mxCell id="efFWzHgV2TAKS4km1B-Z-23" value="n" style="shape=parallelogram;perimeter=parallelogramPerimeter;whiteSpace=wrap;html=1;fixedSize=1;" vertex="1" parent="1">
          <mxGeometry x="330" y="900" width="120" height="60" as="geometry" />
        </mxCell>
        <mxCell id="efFWzHgV2TAKS4km1B-Z-36" style="edgeStyle=orthogonalEdgeStyle;rounded=0;orthogonalLoop=1;jettySize=auto;html=1;exitX=0;exitY=0.5;exitDx=0;exitDy=0;entryX=0;entryY=0.5;entryDx=0;entryDy=0;" edge="1" parent="1" source="efFWzHgV2TAKS4km1B-Z-29" target="efFWzHgV2TAKS4km1B-Z-1">
          <mxGeometry relative="1" as="geometry" />
        </mxCell>
        <mxCell id="efFWzHgV2TAKS4km1B-Z-29" value="i++" style="rounded=0;whiteSpace=wrap;html=1;" vertex="1" parent="1">
          <mxGeometry x="330" y="680" width="120" height="60" as="geometry" />
        </mxCell>
        <mxCell id="efFWzHgV2TAKS4km1B-Z-37" value="True" style="text;html=1;align=center;verticalAlign=middle;whiteSpace=wrap;rounded=0;" vertex="1" parent="1">
          <mxGeometry x="250" y="510" width="60" height="30" as="geometry" />
        </mxCell>
        <mxCell id="efFWzHgV2TAKS4km1B-Z-41" value="False" style="text;html=1;align=center;verticalAlign=middle;whiteSpace=wrap;rounded=0;" vertex="1" parent="1">
          <mxGeometry x="460" y="555" width="60" height="30" as="geometry" />
        </mxCell>
      </root>
    </mxGraphModel>
  </diagram>
</mxfile>
